<?xml version="1.0" encoding="UTF-8"?>
<!DOCTYPE svg PUBLIC "-//W3C//DTD SVG 1.1//EN" "http://www.w3.org/Graphics/SVG/1.1/DTD/svg11.dtd">
<!-- Creator: CorelDRAW 2019 (64 Bit) -->
<svg xmlns="http://www.w3.org/2000/svg" xml:space="preserve" width="45.7195mm" height="10.5834mm" version="1.1" style="shape-rendering:geometricPrecision; text-rendering:geometricPrecision; image-rendering:optimizeQuality; fill-rule:evenodd; clip-rule:evenodd"
viewBox="0 0 4566.61 1057.1"
 xmlns:xlink="http://www.w3.org/1999/xlink">
 <defs>
  <style type="text/css">
   <![CDATA[
    .str0 {stroke:white;stroke-width:52.86;stroke-linecap:round;stroke-linejoin:round;stroke-miterlimit:22.9256}
    .fil2 {fill:none}
    .fil1 {fill:#33CC95}
    .fil0 {fill:white}
   ]]>
  </style>
   <clipPath id="id0">
    <path d="M181.23 906.08l724.86 0 0 -724.85 -724.86 0 0 724.85z"/>
   </clipPath>
 </defs>
 <g id="Camada_x0020_1">
  <metadata id="CorelCorpID_0Corel-Layer"/>
  <path class="fil0" d="M1381.01 563.01c0,-35.52 6.97,-67.02 20.93,-94.5 14.37,-27.49 33.83,-48.63 58.35,-63.43 24.52,-14.8 51.8,-22.2 81.82,-22.2 22.83,0 44.61,5.07 65.32,15.22 20.72,9.73 37.21,22.83 49.47,39.32l0 -166.8 90.06 0 0 469.35 -90.06 0 0 -52.01c-11,17.33 -26.43,31.28 -46.3,41.86 -19.88,10.57 -42.92,15.85 -69.14,15.85 -29.6,0 -56.66,-7.61 -81.18,-22.83 -24.52,-15.22 -43.98,-36.58 -58.35,-64.06 -13.95,-27.91 -20.93,-59.83 -20.93,-95.78zm276.54 1.27c0,-21.56 -4.24,-39.95 -12.69,-55.18 -8.46,-15.65 -19.88,-27.49 -34.25,-35.52 -14.38,-8.46 -29.82,-12.69 -46.31,-12.69 -16.49,0 -31.71,4.02 -45.67,12.05 -13.95,8.03 -25.37,19.88 -34.25,35.52 -8.46,15.22 -12.69,33.41 -12.69,54.55 0,21.15 4.23,39.75 12.69,55.81 8.88,15.65 20.3,27.7 34.25,36.16 14.37,8.45 29.6,12.69 45.67,12.69 16.49,0 31.92,-4.02 46.31,-12.06 14.37,-8.45 25.79,-20.3 34.25,-35.52 8.45,-15.64 12.69,-34.25 12.69,-55.81z"/>
  <path class="fil0" d="M1766.95 563.01c0,-35.52 6.97,-67.02 20.93,-94.5 14.37,-27.49 33.83,-48.63 58.35,-63.43 24.52,-14.8 51.8,-22.2 81.82,-22.2 22.83,0 44.61,5.07 65.32,15.22 20.72,9.73 37.21,22.83 49.47,39.32l0 -166.8 90.06 0 0 469.35 -90.06 0 0 -52.01c-11,17.33 -26.43,31.28 -46.3,41.86 -19.88,10.57 -42.92,15.85 -69.14,15.85 -29.6,0 -56.66,-7.61 -81.18,-22.83 -24.52,-15.22 -43.98,-36.58 -58.35,-64.06 -13.95,-27.91 -20.93,-59.83 -20.93,-95.78zm276.54 1.27c0,-21.56 -4.24,-39.95 -12.69,-55.18 -8.46,-15.65 -19.88,-27.49 -34.25,-35.52 -14.38,-8.46 -29.82,-12.69 -46.31,-12.69 -16.49,0 -31.71,4.02 -45.67,12.05 -13.95,8.03 -25.37,19.88 -34.25,35.52 -8.46,15.22 -12.69,33.41 -12.69,54.55 0,21.15 4.23,39.75 12.69,55.81 8.88,15.65 20.3,27.7 34.25,36.16 14.37,8.45 29.6,12.69 45.67,12.69 16.49,0 31.92,-4.02 46.31,-12.06 14.37,-8.45 25.79,-20.3 34.25,-35.52 8.45,-15.64 12.69,-34.25 12.69,-55.81z"/>
  <path class="fil0" d="M2786.96 383.52c43.13,0 77.8,13.31 104.02,39.95 26.64,26.22 39.96,63.01 39.96,110.36l0 206.14 -88.8 0 0 -194.08c0,-27.49 -6.98,-48.42 -20.94,-62.8 -13.95,-14.8 -32.98,-22.19 -57.08,-22.19 -24.1,0 -43.34,7.39 -57.71,22.19 -13.95,14.37 -20.94,35.31 -20.94,62.8l0 194.08 -88.8 0 0 -194.08c0,-27.49 -6.97,-48.42 -20.93,-62.8 -13.95,-14.8 -32.98,-22.19 -57.08,-22.19 -24.53,0 -43.98,7.39 -58.35,22.19 -13.95,14.37 -20.94,35.31 -20.94,62.8l0 194.08 -88.8 0 0 -351.38 88.8 0 0 42.49c11.42,-14.8 26.01,-26.43 43.77,-34.88 18.18,-8.46 38.06,-12.69 59.62,-12.69 27.48,0 52.01,5.91 73.57,17.76 21.56,11.42 38.27,27.91 50.1,49.47 11.42,-20.3 27.91,-36.58 49.47,-48.84 21.98,-12.27 45.67,-18.39 71.04,-18.39z"/>
  <path class="fil0" d="M3171.21 745.68c-33.82,0 -64.26,-7.4 -91.33,-22.19 -27.06,-15.22 -48.41,-36.58 -64.06,-64.07 -15.22,-27.49 -22.83,-59.19 -22.83,-95.14 0,-35.94 7.82,-67.65 23.46,-95.14 16.07,-27.49 37.85,-48.62 65.33,-63.43 27.49,-15.22 58.14,-22.83 91.96,-22.83 33.83,0 64.48,7.61 91.97,22.83 27.49,14.8 49.05,35.94 64.69,63.43 16.07,27.49 24.1,59.2 24.1,95.14 0,35.95 -8.25,67.65 -24.74,95.14 -16.06,27.49 -38.06,48.84 -65.96,64.07 -27.48,14.79 -58.35,22.19 -92.6,22.19zm0 -77.38c16.07,0 31.08,-3.81 45.04,-11.42 14.37,-8.03 25.79,-19.87 34.25,-35.52 8.46,-15.64 12.69,-34.67 12.69,-57.08 0,-33.4 -8.88,-58.98 -26.64,-76.74 -17.34,-18.19 -38.69,-27.28 -64.07,-27.28 -25.37,0 -46.72,9.09 -64.06,27.28 -16.91,17.76 -25.37,43.34 -25.37,76.74 0,33.41 8.24,59.2 24.73,77.38 16.92,17.76 38.06,26.64 63.43,26.64z"/>
  <path class="fil0" d="M3614.37 383.52c41.86,0 75.69,13.31 101.48,39.95 25.8,26.22 38.69,63.01 38.69,110.36l0 206.14 -88.8 0 0 -194.08c0,-27.91 -6.98,-49.26 -20.94,-64.07 -13.95,-15.22 -32.98,-22.83 -57.08,-22.83 -24.52,0 -43.97,7.61 -58.35,22.83 -13.95,14.8 -20.93,36.16 -20.93,64.07l0 194.08 -88.8 0 0 -351.38 88.8 0 0 43.76c11.84,-15.22 26.85,-27.06 45.03,-35.52 18.61,-8.88 38.9,-13.31 60.89,-13.31z"/>
  <path class="fil0" d="M4165.63 556.67c0,12.69 -0.85,24.1 -2.54,34.25l-256.88 0c2.12,25.37 11,45.25 26.64,59.62 15.65,14.38 34.89,21.56 57.72,21.56 32.98,0 56.44,-14.16 70.4,-42.49l95.78 0c-10.15,33.82 -29.6,61.73 -58.35,83.72 -28.76,21.56 -64.07,32.34 -105.93,32.34 -33.82,0 -64.26,-7.4 -91.33,-22.19 -26.64,-15.22 -47.56,-36.58 -62.79,-64.07 -14.8,-27.49 -22.2,-59.19 -22.2,-95.14 0,-36.37 7.4,-68.29 22.2,-95.77 14.8,-27.49 35.52,-48.63 62.16,-63.43 26.64,-14.8 57.29,-22.2 91.96,-22.2 33.41,0 63.22,7.19 89.44,21.56 26.64,14.37 47.14,34.89 61.52,61.53 14.8,26.21 22.2,56.44 22.2,90.69zm-91.97 -25.37c-0.42,-22.83 -8.66,-41.01 -24.73,-54.55 -16.07,-13.95 -35.73,-20.93 -58.99,-20.93 -21.98,0 -40.59,6.76 -55.81,20.3 -14.79,13.1 -23.88,31.49 -27.27,55.18l166.8 0z"/>
  <polygon class="fil0" points="4566.61,388.6 4349.06,906.15 4254.55,906.15 4330.66,731.09 4189.86,388.6 4289.44,388.6 4380.13,634.05 4472.11,388.6 "/>
  <path class="fil1" d="M902.29 154.81c-99.83,-99.83 -232.56,-154.81 -373.74,-154.81 -141.17,0 -273.91,54.98 -373.74,154.81 -99.82,99.83 -154.81,232.56 -154.81,373.74 0,141.18 54.99,273.91 154.81,373.74 99.83,99.83 232.57,154.81 373.74,154.81 141.18,0 273.91,-54.98 373.74,-154.81 99.83,-99.83 154.81,-232.56 154.81,-373.74 0,-141.18 -54.99,-273.91 -154.81,-373.74z"/>
  <g id="_2852869475072">
  </g>
  <g>
  </g>
  <g style="clip-path:url(#id0)">
   <g>
    <line class="fil2 str0" x1="543.65" y1="211.42" x2="543.65" y2= "875.89" />
    <path class="fil2 str0" d="M694.67 332.23l-226.51 0c-28.04,0 -54.93,11.14 -74.75,30.96 -19.83,19.83 -30.96,46.72 -30.96,74.74 0,28.04 11.14,54.93 30.96,74.75 19.83,19.83 46.72,30.96 74.75,30.96l151.01 0c28.03,0 54.92,11.14 74.74,30.96 19.83,19.83 30.96,46.71 30.96,74.74 0,28.04 -11.14,54.93 -30.96,74.75 -19.83,19.83 -46.72,30.95 -74.74,30.95l-256.73 0"/>
   </g>
  </g>
  <polygon class="fil2" points="181.23,906.08 906.09,906.08 906.09,181.23 181.23,181.23 "/>
  <polygon class="fil2" points="181.23,906.08 906.09,906.08 906.09,181.23 181.23,181.23 "/>
 </g>
</svg>
